<svg width="28" height="29" viewBox="0 0 28 29" fill="none" xmlns="http://www.w3.org/2000/svg">
<path d="M0 14.332C0 6.60005 6.26801 0.332031 14 0.332031C21.732 0.332031 28 6.60005 28 14.332C28 22.064 21.732 28.332 14 28.332C6.26801 28.332 0 22.064 0 14.332Z" fill="black"/>
<path fill-rule="evenodd" clip-rule="evenodd" d="M20.0813 9.04034L18.0409 10.0799L8.18793 15.0985C8.15461 14.8444 8.13785 14.5884 8.13774 14.3321C8.13909 13.3095 8.40756 12.305 8.91657 11.4181C9.42559 10.5312 10.1575 9.79269 11.0397 9.27568C11.922 8.75867 12.924 8.48112 13.9465 8.47053C14.9691 8.45993 15.9766 8.71665 16.8694 9.21527L18.0373 8.62021L18.2115 8.5313C17.1417 7.75477 15.8779 7.28917 14.56 7.18595C13.242 7.08273 11.9212 7.34592 10.7435 7.94643C9.56575 8.54694 8.57701 9.46138 7.8865 10.5887C7.19599 11.716 6.83061 13.0123 6.83075 14.3343C6.83075 14.5168 6.83768 14.6987 6.85154 14.8799C6.87095 15.1364 6.81406 15.3929 6.68802 15.6172C6.56198 15.8415 6.37242 16.0235 6.1432 16.1403L5.52734 16.4543V17.919L7.3405 16.9949L7.92768 16.6952L8.50625 16.4005L18.8934 11.108L20.0605 10.5137L22.4731 9.2841V7.82009L20.0813 9.04034ZM22.4731 10.7502L9.0963 17.5612L7.92911 18.157L5.52734 19.3808V20.8441L7.91262 19.6288L9.95305 18.5893L19.8161 13.5635C19.8494 13.8193 19.8662 14.077 19.8663 14.3349C19.8656 15.3587 19.5972 16.3645 19.0877 17.2525C18.5782 18.1404 17.8453 18.8797 16.9618 19.3969C16.0782 19.9141 15.0748 20.1911 14.0511 20.2006C13.0273 20.2101 12.019 19.9517 11.126 19.451L11.0543 19.489L9.78815 20.1343C10.8578 20.9108 12.1213 21.3766 13.439 21.4801C14.7568 21.5835 16.0774 21.3207 17.2552 20.7206C18.4329 20.1205 19.4218 19.2065 20.1126 18.0796C20.8034 16.9527 21.1692 15.6567 21.1697 14.3349C21.1697 14.1507 21.1625 13.9664 21.1489 13.7843C21.1295 13.5279 21.1863 13.2714 21.3122 13.0472C21.4381 12.8229 21.6275 12.6409 21.8565 12.5239L22.4731 12.2099V10.7502Z" fill="white"/>
</svg>
